<?xml version="1.0" encoding="utf-8"?>
<!-- Generator: Adobe Illustrator 24.3.0, SVG Export Plug-In . SVG Version: 6.00 Build 0)  -->
<svg version="1.1"
	 id="Layer_1" xmlns:cc="http://creativecommons.org/ns#" xmlns:dc="http://purl.org/dc/elements/1.1/" xmlns:inkscape="http://www.inkscape.org/namespaces/inkscape" xmlns:rdf="http://www.w3.org/1999/02/22-rdf-syntax-ns#" xmlns:sodipodi="http://sodipodi.sourceforge.net/DTD/sodipodi-0.dtd" xmlns:svg="http://www.w3.org/2000/svg"
	 xmlns="http://www.w3.org/2000/svg" xmlns:xlink="http://www.w3.org/1999/xlink" x="0px" y="0px" viewBox="0 0 512 512"
	 style="enable-background:new 0 0 512 512;" xml:space="preserve">
<style type="text/css">
	.st0{display:none;}
	.st1{display:inline;}
	.st2{fill:#FFFFFF;}
	.st3{display:inline;fill-rule:evenodd;clip-rule:evenodd;fill:#FFFFFF;}
	.st4{display:inline;fill:#FFFFFF;}
</style>
<g>
	<g id="Layer_1_1_">
		<g id="FreeBSD" class="st0">
			<g id="g4083" class="st1">
				<g id="g7898">
					<path id="path123" class="st2" d="M424.6,92c18.2,18.3-32.4,98.7-41,107.2c-8.6,8.6-30.4,0.7-48.6-17.6
						c-18.2-18.2-26.2-40.1-17.6-48.6C326,124.4,406.3,73.8,424.6,92L424.6,92z"/>
					<path id="path125" class="st2" d="M168.1,111.4C140.2,95.6,100.4,78,87.8,90.6C75,103.4,93.3,144,109.3,172
						C123.5,147.1,143.8,126.3,168.1,111.4L168.1,111.4L168.1,111.4z"/>
					<path id="path127" class="st2" d="M396.7,192.9c2.5,8.8,2.1,15.9-2,20.1c-9.8,9.8-36.1-0.6-59.7-23.2c-1.6-1.5-3.3-3.1-4.9-4.7
						c-8.6-8.6-15.3-17.7-19.5-26.1c-8.3-14.9-10.4-28-4.1-34.4c3.5-3.5,8.9-4.4,15.6-3.2c4.4-2.8,9.5-5.8,15.1-9
						c-22.9-11.9-48.9-18.8-76.7-18.8c-91.6,0-166.1,74.3-166.1,166.1s74.3,166.1,166.1,166.1c91.6,0,166.1-74.3,166.1-166.1
						s-7.7-57.4-21.3-81.4C402.2,183.8,399.4,188.7,396.7,192.9L396.7,192.9L396.7,192.9z"/>
				</g>
			</g>
		</g>
		<g id="Chrome_OS" class="st0">
			<g class="st1">
				<path class="st2" d="M190.3,256c0,36,29.7,65.7,65.7,65.7s65.7-29.7,65.7-65.7S292,190.3,256,190.3S190.3,220,190.3,256z"/>
				<path class="st2" d="M405.5,170.1v-3.2c-14.8-25.4-37.1-46.6-62.5-62.5c-26.5-15.9-57.2-23.3-88-23.3
					c-53,0-102.8,24.4-136.7,65.7c-1.1,1.1-1.1,2.1,0,3.2l48.8,84.8c0,1.1,1.1,1.1,2.1,1.1l0,0c1.1,0,2.1-1.1,2.1-2.1
					c9.5-37.1,43.5-63.6,82.7-63.6h147.3C404.4,171.2,405.5,170.1,405.5,170.1L405.5,170.1z"/>
				<path class="st2" d="M281.4,338.7c-1.1-1.1-2.1-1.1-3.2-1.1c-7.4,2.1-14.8,3.2-23.3,3.2c-32.9,0-63.6-19.1-77.4-48.8l0,0
					l-70-121.9c0-1.1-1.1-1.1-2.1-1.1l0,0c-1.1,0-2.1,1.1-2.1,1.1C88.5,196.6,81,226.3,81,256c0,42.4,14.8,82.7,42.4,114.5
					s64.7,51.9,106,58.3l0,0c1.1,0,2.1-1.1,2.1-1.1l48.8-84.8C282.5,340.8,282.5,339.7,281.4,338.7L281.4,338.7z"/>
				<path class="st2" d="M416.1,190.3h-98.6c-1.1,0-2.1,1.1-3.2,2.1c0,1.1,0,2.1,1.1,3.2c17,15.9,25.4,38.2,25.4,60.4
					s-5.3,33.9-14.8,48.8l0,0l-70,121.9v3.2c0,1.1,1.1,1.1,2.1,1.1l0,0c46.6,0,90.1-19.1,121.9-51.9c32.9-32.9,50.9-76.3,50.9-123
					s-4.2-43.5-11.7-63.6C418.2,191.3,417.1,190.3,416.1,190.3L416.1,190.3z"/>
			</g>
		</g>
		<g id="Linux" class="st0">
			<path class="st3" d="M234.4,91.1c-157,12.6-115.3,178.4-117.7,234c-2.1,29.3-11.8,65.3-25.6,101.9h42.5
				c4.3-15.5,7.6-30.8,8.9-45.4c2.5,1.8,5.3,3.5,8.2,5.1c4.7,2.8,8.8,6.6,13.1,10.5c10.1,9.2,21.6,19.6,43.9,20.9
				c1.4,0.1,3,0.1,4.5,0.1c22.6,0,38.1-9.9,50.6-17.9c5.9-3.8,11.2-7.1,15.9-8.7c13.8-4.3,25.8-11.3,34.8-20.1
				c1.4-1.4,2.8-2.8,3.9-4.2c5,18.4,11.8,39,19.5,59.7h90.7c-21.7-33.7-44.2-66.5-43.8-108.5C384.8,235.5,393.4,78.5,234.4,91.1z"/>
			<path class="st3" d="M312.1,310.6c-7.2-3.2-13.1-5.3-17.9-7c2.6-5.3,4.3-11.7,4.5-18.8l0,0c0.4-17.2-8.3-31.2-19.3-31.3
				c-11,0-20.4,13.9-20.8,31.2l0,0v1.7c-6.8-3.2-13.5-5.4-20.1-6.8c0-0.7-0.1-1.3-0.1-2l0,0c-0.7-31.4,18.5-57.3,43-58
				c24.3-0.7,44.7,24.2,45.2,55.6l0,0c0.3,14.2-3.5,27.2-10,37.3C315.2,311.9,313.7,311.3,312.1,310.6L312.1,310.6z"/>
			<path class="st3" d="M285.3,320.9c5.3,1.8,11.3,3.9,19.3,7.4h0.1c7.5,3,16.4,8.7,16,18c-0.7,14.3-19.3,27.7-36.7,33.3h-0.1
				c-7.2,2.4-13.7,6.4-20.4,10.8c-11.4,7.4-23.3,14.9-40.2,14.9s-2.2,0-3.4-0.1c-15.6-0.9-22.9-7.6-32.2-16
				c-4.9-4.5-9.9-9.1-16.4-12.9h-0.1c-14.1-8-22.7-17.8-23.3-26.4c-0.3-4.2,1.6-8,5.7-11c8.8-6.6,14.6-10.9,18.5-13.7
				c4.3-3.2,5.7-4.1,6.6-5c0.7-0.7,1.4-1.3,2.2-2.1c8-7.8,21.4-20.9,42.1-20.9s26.6,4.9,41.4,14.5
				C271.5,316,277.5,318.1,285.3,320.9L285.3,320.9z"/>
			<path class="st3" d="M219.9,349.8c-20.1-1.4-36.2-7-43.3-11.7c-4.3-3-10.3-1.8-13.3,2.5s-1.8,10.4,2.5,13.3
				c11.4,7.8,31.6,13.4,52.6,15c3.5,0.3,7.5,0.4,11.7,0.4c18.3,0,41.7-1.7,66.5-13.3c4.7-2.2,6.8-7.9,4.6-12.8
				c-2.2-4.7-7.9-6.8-12.8-4.6C261.7,351.1,236.7,351,219.9,349.8z"/>
			<path class="st3" d="M191.5,285.1L191.5,285.1c-1.4-15.4-9.7-27.1-18.4-25.9c-8.7,1.1-14.5,14.3-12.9,29.7
				c0.7,6.7,2.6,12.8,5.3,17.2c-0.7,0.5-2.5,2-4.7,3.5c-1.7,1.2-3.7,2.6-6,4.5c-6.6-8.5-11-20.9-11.8-34.8l0,0
				c-1.6-27.1,11.4-50,28.9-50.9c17.6-1.1,33,20.1,34.6,47.2l0,0c0.1,1.4,0.1,2.9,0.1,4.3c-5.5,1.4-10.5,3.4-15.1,5.8V285.1
				L191.5,285.1z"/>
		</g>
		<g id="MacOS" class="st0">
			<path class="st4" d="M276.6,90.3c13.8-16.3,37.7-28.9,57.7-28.9c2.5,22.6-6.3,45.2-20.1,61.5s-36.4,28.9-57.7,27.6
				C252.7,129.2,264,105.3,276.6,90.3z"/>
			<path class="st4" d="M387.1,401.6c-16.3,23.8-32.6,47.7-59,47.7s-33.9-15.1-64-15.1s-38.9,15.1-64,16.3
				c-25.1,1.3-45.2-25.1-61.5-49c-33.9-47.7-59-136.8-25.1-195.8c17.6-30.1,47.7-47.7,80.3-49c25.1,0,49,17.6,64,17.6
				s43.9-21.3,74.1-17.6c12.6,0,47.7,5,71.5,38.9c-1.3,1.3-42.7,25.1-41.4,74.1c0,59,51.5,77.8,52.7,79.1
				C413.4,347.6,405.9,375.2,387.1,401.6L387.1,401.6z"/>
		</g>
		<g id="Windows">
			<polygon class="st2" points="224.8,389.3 95.6,370.8 95.6,265.8 224.8,265.8 			"/>
			<polygon class="st2" points="224.8,247.3 95.6,247.3 95.6,142.3 224.8,122.7 			"/>
			<polygon class="st2" points="416.4,417 242.2,391.6 242.2,264.7 416.4,264.7 			"/>
			<polygon class="st2" points="416.4,247.3 243.3,247.3 243.3,120.4 416.4,95 			"/>
		</g>
		<g id="RaspberryPi" class="st0">
			<g id="g6677" class="st1">
				<path id="path5175-4" class="st2" d="M193.8,83.5c-1.7,0.1-3.6,0.7-5.7,2.4c-5.2-2-10.3-2.7-14.8,1.4c-7-0.9-9.2,1-11,3.2
					c-1.5,0-11.5-1.6-16.1,5.2c-11.4-1.5-15,6.6-10.9,14.2c-2.3,3.6-4.8,7.2,0.7,14.1c-1.9,3.8-0.7,8,3.8,13.1
					c-1.2,5.4,1.2,9.2,5.4,12.2c-0.8,7.4,6.8,11.7,9,13.2c0.9,4.3,2.7,8.4,11.3,10.6c1.4,6.4,6.6,7.5,11.7,8.9
					c-16.7,9.7-31,22.4-30.9,53.7l-2.4,4.4c-19.1,11.6-36.3,49-9.4,79.3c1.8,9.5,4.7,16.3,7.3,23.9c3.9,30.4,29.5,44.7,36.3,46.4
					c9.9,7.5,20.4,14.7,34.7,19.7c13.4,13.9,28,19.1,43.2,19.1s29.8-5.3,43.2-19.1c14.3-5,24.8-12.1,34.7-19.7
					c6.7-1.7,32.3-16,36.3-46.4c2.6-7.6,5.6-14.4,7.3-23.9c26.9-30.3,9.7-67.7-9.4-79.3l-2.4-4.4c0.1-31.3-14.2-44-30.9-53.7
					c5-1.3,10.2-2.5,11.7-8.9c8.7-2.3,10.5-6.3,11.3-10.6c2.3-1.5,9.8-5.8,9-13.2c4.2-3,6.6-6.8,5.4-12.2c4.6-5.1,5.8-9.2,3.8-13.1
					c5.5-6.9,3-10.5,0.7-14.1c4.1-7.6,0.5-15.7-11-14.3c-4.6-6.8-14.5-5.3-16.1-5.2c-1.7-2.2-4-4.1-11-3.2
					c-4.5-4.1-9.6-3.4-14.8-1.4c-2.1-1.7-4-2.3-5.7-2.4c-3.3-0.1-6.2,1.9-9.2,2.9c-7.5-2.5-9.2,0.9-12.9,2.3
					c-8.2-1.7-10.7,2.1-14.6,6h-4.6c-12.3,7.2-18.4,22-20.9,22s-8.5-14.8-20.9-22.1h-4.6c-3.9-3.9-6.4-7.7-14.6-5.9
					c-3.7-1.4-5.4-4.7-12.9-2.3C200,85.4,197.1,83.4,193.8,83.5L193.8,83.5L193.8,83.5z M194.3,92.3c6.3,2.3,9.5,5.3,12.9,8.3
					c1.2-1.6,2.9-2.7,0.8-6.5c4.5,2.6,7.8,5.6,10.3,9c2.8-1.8,1.6-4.1,1.6-6.3c4.6,3.8,7.6,7.8,11.2,11.7c0.7-0.5,1.3-2.3,1.9-5.1
					c11,10.7,26.6,37.7,4,48.4c-19.3-16-42.3-27.6-67.7-36.2c32.7,16.9,51.8,30.5,62.2,42.1c-5.3,21.4-33.2,22.4-43.4,21.8
					c2.1-1,3.8-2.2,4.4-3.9c-2.6-1.8-11.6-0.2-18-3.7c2.4-0.5,3.6-1,4.7-2.8c-6-1.9-12.4-3.6-16.2-6.7c2,0,3.9,0.5,6.6-1.4
					c-5.4-2.9-11.1-5.2-15.5-9.6c2.8,0,5.7,0,6.6-1.1c-4.9-3-9-6.4-12.5-10.1c3.9,0.5,5.5,0.1,6.4-0.6c-3.7-3.8-8.4-7-10.6-11.7
					c2.9,1,5.5,1.3,7.4-0.1c-1.1-2.8-6.5-4.5-9.6-11.1c3,0.3,6.3,0.7,6.9,0c-1.4-5.7-3.8-9-6.2-12.3c6.5,0,16.3,0,15.9-0.5l-4-4.1
					c6.3-1.7,12.8,0.3,17.5,1.8c2.1-1.7,0-3.8-2.6-5.9c5.4,0.7,10.3,2,14.7,3.7c2.3-2.1-1.5-4.2-3.4-6.3c8.3,1.6,11.9,3.8,15.4,6
					C198.4,96.5,196,94.4,194.3,92.3L194.3,92.3z M317.8,92.3c-1.7,2.1-4.1,4.2-1.6,6.6c3.5-2.2,7-4.4,15.4-6
					c-1.9,2.1-5.8,4.2-3.4,6.3c4.4-1.7,9.3-2.9,14.7-3.7c-2.6,2.2-4.7,4.3-2.6,5.9c4.7-1.5,11.2-3.5,17.5-1.8l-4,4.1
					c-0.4,0.5,9.4,0.4,15.9,0.5c-2.4,3.3-4.8,6.6-6.2,12.3c0.6,0.7,3.9,0.3,6.9,0c-3.1,6.6-8.5,8.3-9.8,11.1
					c1.9,1.5,4.5,1.1,7.4,0.1c-2.2,4.7-6.9,7.9-10.6,11.7c0.9,0.7,2.6,1.1,6.4,0.6c-3.4,3.7-7.6,7.1-12.5,10.1c0.9,1,3.8,1,6.6,1.1
					c-4.4,4.4-10.1,6.7-15.5,9.6c2.7,1.9,4.6,1.4,6.6,1.4c-3.8,3.2-10.2,4.8-16.2,6.7c1.1,1.8,2.3,2.3,4.7,2.8
					c-6.3,3.6-15.4,1.9-18,3.7c0.6,1.8,2.4,3,4.4,3.9c-10.2,0.6-38.1-0.4-43.4-21.8c10.4-11.6,29.5-25.3,62.2-42.1
					c-25.5,8.7-48.4,20.2-67.7,36.1c-22.6-10.7-7-37.7,4-48.4c0.6,2.8,1.2,4.6,1.9,5.1c3.6-3.9,6.5-7.9,11.2-11.7
					c0,2.2-1.1,4.6,1.6,6.3c2.5-3.4,5.8-6.4,10.3-9c-2.1,3.8-0.4,4.9,0.8,6.5C308.3,97.6,311.5,94.6,317.8,92.3L317.8,92.3
					L317.8,92.3z M256,180.8c19.5,0,35.8,13.3,35.9,21.1c0.1,9.8-14.3,19.8-35.6,20.1h-0.6c-21.3-0.3-35.6-10.3-35.6-20.1
					C220.1,194,236.5,180.8,256,180.8L256,180.8z M201.2,187.3h1.2c3.2,0,6.4,0.3,9.7,0.8c11.2,1.9-53.5,58.3-54.5,45.7
					C156.8,205.1,176,187.7,201.2,187.3L201.2,187.3z M309.6,187.3h1.2c25.2,0.4,44.4,17.8,43.5,46.6c-1,12.6-65.6-43.9-54.5-45.7
					C303.2,187.6,306.5,187.3,309.6,187.3z M211.5,223.2c3.7,0,7.5,0.5,11.2,1.8c19.6,6.6,29.5,29.5,22.1,51.2s-29.2,33.9-48.8,27.3
					s-29.5-29.5-22.1-51.2C179.8,234.7,195.4,223.4,211.5,223.2z M300.5,223.2c16.1,0,31.7,11.5,37.7,29.1
					c7.4,21.7-2.5,44.6-22.1,51.2s-41.5-5.7-48.8-27.3c-7.4-21.7,2.5-44.6,22.1-51.2C293,223.8,296.8,223.2,300.5,223.2L300.5,223.2
					L300.5,223.2z M154.2,247.4c15.3,0.2,3.9,72.6-9.9,66.5c-15.7-12.6-20.8-49.6,8.3-66.2c0.4-0.1,0.8-0.2,1.2-0.2
					c0.1,0,0.3,0,0.4,0l0,0V247.4z M357.9,247.4h0.4c0.4,0,0.8,0.1,1.2,0.2c29.1,16.6,24.1,53.6,8.4,66.2
					C353.9,320,342.6,247.6,357.9,247.4L357.9,247.4z M256,297.4c10.3,0,19.9,3.7,26.9,10.1c7.5,6.8,11.8,16.4,11.8,26
					s-4.2,18.9-11.5,25.6c-7.1,6.6-17.1,10.5-27.2,10.6c-10.1-0.1-20.1-4-27.2-10.6c-7.3-6.7-11.5-16.1-11.5-25.6
					c0-9.6,4.3-19.3,11.8-26C236.1,301.1,245.7,297.4,256,297.4L256,297.4z M165.9,316.4c10.1-0.2,22.5,7.8,32.6,19.4
					c11.2,13.5,16.3,37.3,7,44.3c-8.9,5.3-30.4,3.1-45.7-18.8c-10.3-18.4-9-37.2-1.7-42.7C160.5,317.2,163.1,316.5,165.9,316.4
					L165.9,316.4z M345.1,316.4h1c2.8,0.1,5.5,0.8,7.8,2.2c7.2,5.5,8.6,24.3-1.7,42.7c-15.3,22-36.8,24.2-45.7,18.8
					c-9.4-7-4.3-30.8,7-44.3C323.2,324.6,335.2,316.7,345.1,316.4L345.1,316.4L345.1,316.4z M256,381.1c15.7-0.2,39,6.4,38.7,14.8
					c0.3,5.8-18.9,22.6-38.3,21.8h-0.6c-19.5,0.8-38.6-16-38.3-21.8C217.1,387.5,240.4,380.9,256,381.1z"/>
			</g>
		</g>
		<g id="Android" class="st0">
			<g class="st1">
				<path class="st2" d="M140.6,301.7c0,12.2-10,21.1-21.1,21.1s-21.1-10-21.1-21.1v-92.1c0-12.2,10-21.1,21.1-21.1
					s21.1,10,21.1,21.1V301.7z"/>
				<path class="st2" d="M355.9,206.3v139.8c0,12.2-10,22.2-22.2,22.2H317c0,2.2,1.1,4.4,1.1,5.5v44.4c0,12.2-10,21.1-21.1,21.1
					s-21.1-10-21.1-21.1v-44.3c0-2.2,0-4.4,1.1-5.5h-40c0,2.2,1.1,4.4,1.1,5.5v44.4c0,12.2-10,21.1-21.1,21.1s-21.1-10-21.1-21.1
					v-44.4c0-2.2,0-4.4,1.1-5.5h-16.6c-12.2,0-22.2-10-22.2-22.2V188.5h199.9L355.9,206.3L355.9,206.3L355.9,206.3z"/>
				<path class="st2" d="M155,174.1c0-31.1,21.1-57.7,51.1-72.1l-4.4-5.5l-4.4-5.5l-8.9-13.3c-1.1-1.1-1.1-4.4,1.1-4.4
					s4.4-1.1,4.4,1.1l10,14.4l4.4,5.5l4.4,6.7c13.3-5.5,27.7-7.8,42.2-7.8c14.5,0,30,3.3,42.2,7.8l4.4-6.7l4.4-5.5l10-14.4
					c1.1-1.1,3.3-2.2,4.4-1.1s2.2,3.3,1.1,4.4L312.5,91l-4.4,5.5l-4.4,5.5c30,14.4,51.1,41.1,51.1,72.1H155L155,174.1z"/>
				<path class="st2" d="M413.6,301.7c0,12.2-10,21.1-21.1,21.1s-21.1-10-21.1-21.1v-92.1c0-12.2,10-21.1,21.1-21.1
					s21.1,10,21.1,21.1V301.7z"/>
				<circle class="st2" cx="212.7" cy="135.3" r="11.1"/>
				<circle class="st2" cx="298.2" cy="135.3" r="11.1"/>
			</g>
		</g>
	</g>
</g>
</svg>
